<?xml version="1.0" encoding="UTF-8"?>
<svg width="38px" height="34px" viewBox="0 0 38 34" version="1.1" xmlns="http://www.w3.org/2000/svg" xmlns:xlink="http://www.w3.org/1999/xlink">
    <!-- Generator: Sketch 44.1 (41455) - http://www.bohemiancoding.com/sketch -->
    <title>detailed-gift-icon-3</title>
    <desc>Created with Sketch.</desc>
    <defs>
        <filter x="-11.2%" y="-144.0%" width="122.3%" height="387.9%" filterUnits="objectBoundingBox" id="filter-1">
            <feGaussianBlur stdDeviation="0.479910714" in="SourceGraphic"></feGaussianBlur>
        </filter>
    </defs>
    <g id="科教英文小学霸网络评比" stroke="none" stroke-width="1" fill="none" fill-rule="evenodd">
        <g id="详情" transform="translate(-178.000000, -484.000000)">
            <g id="Group-8" transform="translate(5.500000, 452.000000)">
                <g id="Group-9" transform="translate(13.000000, 32.000000)">
                    <g id="detailed-gift-icon-3" transform="translate(159.000000, 0.000000)">
                        <g id="Group-7" transform="translate(0.927384, 21.342834)">
                            <rect id="Rectangle-11" fill="#FFC700" x="0" y="6" width="37" height="6"></rect>
                            <rect id="Rectangle-12" fill="#FFC700" x="5" y="1" width="27" height="4"></rect>
                            <polygon id="Rectangle-17" fill="#FFB200" points="5 5 32 5 37.0287897 6.00221468 0 6.00221468"></polygon>
                            <polygon id="Rectangle-18" fill="#FFB200" points="8 0 29 0 31.9969832 1 5 1"></polygon>
                        </g>
                        <path d="M16.0105927,21.3805265 C16.1918759,21.3597095 16.47769,21.3428339 16.6623528,21.3428339 L24.0153172,21.3428339 C24.1939912,21.3428339 24.4854408,21.3664648 24.6573548,21.394175 L26.3773614,21.6714169 L24.6573548,21.9486589 C24.4814412,21.9770138 24.19998,22 24.0153172,22 L16.6623528,22 C16.4836789,22 16.1849922,21.9823339 16.0105927,21.9623073 L13.4774059,21.6714169 L16.0105927,21.3805265 Z" id="Rectangle-19" fill="#000000" opacity="0.212239583" filter="url(#filter-1)"></path>
                        <g id="鲜花" transform="translate(12.427384, 0.865814)">
                            <path d="M9.72360272,0 C9.5709949,0.406954192 9.50019745,0.859008977 9.45929226,1.2974287 C8.54731631,1.57012996 6.96040473,2.09612874 6.11503082,2.53664617 C5.90638525,2.32593069 5.68724675,2.12587053 5.45845009,1.93722781 C6.47059131,1.08556079 8.41358781,0.382830618 9.72360272,0 Z M5.53291851,2.75480718 C4.87319122,3.14550418 3.33138024,4.39101475 3.08909566,4.68311976 C3.23069054,3.83931912 3.29362161,2.7511362 3.18611438,1.89894475 C3.14752785,1.56367535 3.08282696,1.23192984 2.99260137,0.906731697 C3.83954856,1.34777355 4.84329897,2.07148074 5.53291851,2.75480718 Z M2.11576192,11.1414198 C0.582866172,9.31904122 2.41887986,6.16095083 3.89985749,4.85618017 C5.86330658,3.12662486 8.37687802,2.11920346 11.0467283,1.53342018 C10.5149608,2.21517333 10.3571087,3.36681174 10.5647812,4.27721442 C10.815981,5.37378815 11.5989483,6.28051984 11.928812,7.35244557 C12.2224902,8.30637557 12.4233452,9.38931423 12.0363192,10.3479641 C11.6681725,11.2604644 10.7866132,11.8163555 9.82324356,12.111607 C8.41201453,12.5453069 6.79993053,12.6029937 5.33049027,12.4613988 C4.17832743,12.3502206 2.86569039,12.0313699 2.11576192,11.1414198 L2.11576192,11.1414198 Z" id="Shape" fill="#EB5151" fill-rule="nonzero"></path>
                            <path d="M7.74074988,20.5406982 C7.74074988,20.7819339 7.57503142,20.9770202 7.36945663,20.9770202 C7.16440625,20.9770202 6.76322074,20.7829827 6.76322074,20.5427959 L6.71077819,18.6144833 C6.56393905,18.3957979 6.41185566,18.1823567 6.25190588,17.9778307 C6.17586418,17.8802876 6.09982248,17.7911352 6.02378078,17.7051295 C5.01950594,16.7412354 4.72215668,17.4958837 3.49604985,17.7240088 C3.45040068,17.730223 3.40458181,17.7351197 3.35865037,17.7386927 C2.12467716,17.8367603 1.00397985,17.0485487 0.0836130914,16.1890153 C0.0130021682,16.1266438 -0.00794001461,16.0251384 0.0322193919,15.9399132 C0.0413813348,15.8932737 0.066622246,15.8513292 0.103541261,15.821393 C0.551400642,15.248196 1.19224861,14.7945679 1.83729198,14.6021038 C3.29991471,14.1652573 4.49298273,15.2539647 5.30898882,16.5424781 C5.55809093,16.6720112 5.78831373,16.8382541 6.00227934,17.0317671 L5.9933641,17.0265229 C6.13286129,17.141372 6.3798657,17.3862788 6.70920492,17.8299427 L6.69976526,13.8726279 C6.69871641,13.1001491 7.67624555,13.1122109 7.67781882,13.8899339 L7.68463636,16.6762066 C8.20014663,15.8659692 8.58087954,15.4726501 8.76862387,15.3163713 C8.76555131,15.3180884 8.76240143,15.3196633 8.75918421,15.3210911 C8.96762752,15.1272469 9.1998906,14.9607153 9.45037703,14.825509 C10.2616633,13.5223116 11.4505359,12.4194448 12.9147319,12.8541935 C13.5602997,13.0461333 14.202721,13.5008102 14.6532025,14.0771538 C14.6903212,14.1074476 14.715726,14.1497271 14.7250488,14.1967228 C14.7655137,14.2825643 14.7450721,14.3847722 14.6747039,14.4484471 C13.7580081,15.3189934 12.6399329,16.1176935 11.4059597,16.0243457 C11.3598863,16.0206432 11.3139005,16.0159222 11.2680358,16.0101862 C10.0414046,15.7846833 9.74090876,15.0242663 8.7403049,16.0007466 C8.66478762,16.0872768 8.58927035,16.1780024 8.51322865,16.2765944 C8.21844277,16.6597621 7.94985111,17.0623868 7.70928435,17.4817242 C7.70246682,17.4932616 7.69355159,17.4985058 7.68620963,17.5079455 L7.74074988,20.5406982 L7.74074988,20.5406982 Z" id="Path" fill="#5BD893"></path>
                        </g>
                    </g>
                </g>
            </g>
        </g>
    </g>
</svg>