<?xml version="1.0" encoding="UTF-8"?>
<svg width="38px" height="34px" viewBox="0 0 38 34" version="1.1" xmlns="http://www.w3.org/2000/svg" xmlns:xlink="http://www.w3.org/1999/xlink">
    <!-- Generator: Sketch 44.1 (41455) - http://www.bohemiancoding.com/sketch -->
    <title>detailed-gift-icon-2</title>
    <desc>Created with Sketch.</desc>
    <defs>
        <filter x="-11.2%" y="-144.0%" width="122.3%" height="387.9%" filterUnits="objectBoundingBox" id="filter-1">
            <feGaussianBlur stdDeviation="0.479910714" in="SourceGraphic"></feGaussianBlur>
        </filter>
    </defs>
    <g id="科教英文小学霸网络评比" stroke="none" stroke-width="1" fill="none" fill-rule="evenodd">
        <g id="详情" transform="translate(-99.000000, -484.000000)">
            <g id="Group-8" transform="translate(5.500000, 452.000000)">
                <g id="Group-9" transform="translate(13.000000, 32.000000)">
                    <g id="detailed-gift-icon-2" transform="translate(80.000000, 0.000000)">
                        <g id="Group-7" transform="translate(0.927384, 21.342834)">
                            <rect id="Rectangle-11" fill="#FFC700" x="0" y="6" width="37" height="6"></rect>
                            <rect id="Rectangle-12" fill="#FFC700" x="5" y="1" width="27" height="4"></rect>
                            <polygon id="Rectangle-17" fill="#FFB200" points="5 5 32 5 37.0287897 6.00221468 0 6.00221468"></polygon>
                            <polygon id="Rectangle-18" fill="#FFB200" points="8 0 29 0 31.9969832 1 5 1"></polygon>
                        </g>
                        <path d="M16.0105927,21.3805265 C16.1918759,21.3597095 16.47769,21.3428339 16.6623528,21.3428339 L24.0153172,21.3428339 C24.1939912,21.3428339 24.4854408,21.3664648 24.6573548,21.394175 L26.3773614,21.6714169 L24.6573548,21.9486589 C24.4814412,21.9770138 24.19998,22 24.0153172,22 L16.6623528,22 C16.4836789,22 16.1849922,21.9823339 16.0105927,21.9623073 L13.4774059,21.6714169 L16.0105927,21.3805265 Z" id="Rectangle-19" fill="#000000" opacity="0.212239583" filter="url(#filter-1)"></path>
                        <path d="M19.9926961,9.26655209 L23.8659936,5.32186859 C24.2311814,4.9501649 24.2320529,4.3447911 23.8664294,3.97219973 C23.4981704,3.5971567 22.9070801,3.59984084 22.5414566,3.97264356 L17.4071429,9.2018997 L17.3151922,9.19965938 C17.3151922,9.19965938 16.9981691,9.55151719 16.8011528,9.5622327 C16.6041158,9.57313843 16.4219785,9.2482702 16.4219785,9.2482702 L16.2144204,7.33581486 L16.2144204,7.26756949 C16.2144204,6.74223447 15.794967,6.31344477 15.2778356,6.31344477 C14.8308033,6.31344477 14.461237,6.62782997 14.3657794,7.04994096 L14.36138,7.04970848 L13.7457612,11.1625009 L13.4050812,14.4164246 L12.4358749,15.6630386 C12.4358749,15.6630386 12.3141457,15.7874611 12.3172169,15.9716539 C12.3202674,16.1553816 12.4474751,16.340927 12.4474751,16.340927 L17.680795,21.7677122 C17.680795,21.7677122 17.8047239,21.8555498 18.0052472,21.8412624 C18.2053555,21.8274612 18.4010852,21.7173049 18.4010852,21.7173049 C18.4010852,21.7173049 19.0149608,21.0002107 19.3639207,20.8084727 C19.7129014,20.6167136 19.881903,20.8271773 21.0404889,20.2305112 C22.1995107,19.633824 23.2276103,18.8181978 23.2276103,18.8181978 L23.2696324,18.7749131 C23.3313686,18.7361301 23.3895977,18.6892946 23.4430125,18.6349139 L28.6531113,13.3282609 C29.0182991,12.9572335 29.0191706,12.3516484 28.6535471,11.9788245 C28.2852881,11.6037815 27.6941978,11.6069095 27.3290101,11.9792684 L24.9746719,14.3771767 C24.8870999,14.3967901 24.5158112,14.4654793 24.3375959,14.2808427 C24.1339806,14.0707806 24.2373239,13.5913934 24.2373239,13.5913934 L24.1979372,13.553963 L27.924562,9.75777501 C28.2897498,9.38628267 28.2906213,8.78093001 27.9254336,8.40833864 C27.5567388,8.03327446 26.9665201,8.0359375 26.6004608,8.40876135 L22.8274145,12.2517637 L22.802886,12.2285996 C22.802886,12.2285996 22.2511824,12.3222282 22.1289966,12.0876705 C22.0164603,11.8700208 22.1276892,11.3121377 22.1447679,11.2307462 L26.8846133,6.40377636 C27.2489295,6.03228402 27.2506726,5.42693137 26.8846133,5.05434 C26.5163751,4.67927582 25.925679,4.68195998 25.5596197,5.05455135 L20.7208511,9.98275855 L20.7116581,9.97472721 C20.7116581,9.97472721 20.279069,10.0384919 20.0969109,9.85700447 C19.9151886,9.67551704 20.0027814,9.26678457 20.0027814,9.26678457 L19.9926961,9.26655209 Z M16.9000968,6.6920808 C16.7214457,6.20776907 16.3650152,5.91255345 16.3650152,5.91255345 L21.0418171,1.14955964 C21.4446483,0.739516796 22.0979313,0.740636974 22.5025057,1.1526665 L22.3632621,1.01063836 C22.7678572,1.42247769 22.7766144,2.09628704 22.3799257,2.51884188 L17.1663198,8.07808095 C17.1663198,8.07808095 17.0796194,7.17616002 16.9000968,6.6920808 Z M24.3914257,3.40675022 C24.0556016,3.05979577 23.4815691,2.95255609 23.4815691,2.95255609 L24.1760235,2.24503617 C24.55084,1.86329328 25.1550661,1.85995394 25.5324973,2.24438099 L25.5014113,2.21272055 C25.8757713,2.59399846 25.8827853,3.21921815 25.5197973,3.60630822 L24.8284349,4.34324826 C24.8284349,4.34324824 24.7277271,3.7537258 24.3914257,3.40675022 Z M14.9323412,5.67150719 C14.9323412,5.67150719 14.9691132,4.45359479 14.9691132,4.29664525 C14.9691132,4.13944207 14.6350114,3.54431884 13.9331488,3.54431884 C13.2316804,3.54431884 12.9483787,4.07098537 12.9483787,4.07098537 C12.9483787,4.07098537 12.0674084,11.552719 12.0012936,11.7335723 C11.9353864,11.9145948 11.0975588,12.8301479 11.0975588,12.8301479 C11.0975588,12.8301479 10.950886,12.97467 10.9305079,13.0861367 C10.9101713,13.1972019 10.9957719,13.3871645 10.9957719,13.3871645 L12.2552732,14.6594576 L12.6966403,14.2308793 L12.7833407,12.5220187 L13.5636032,6.80534403 C13.5636032,6.80534403 13.799176,6.28110804 14.1336928,6.00440679 C14.4677738,5.72770554 14.9323412,5.67150719 14.9323412,5.67150719 Z" id="Shape" fill="#FF911A" fill-rule="nonzero"></path>
                    </g>
                </g>
            </g>
        </g>
    </g>
</svg>