<?xml version="1.0" encoding="UTF-8"?>
<svg width="22px" height="23px" viewBox="0 0 22 23" version="1.1" xmlns="http://www.w3.org/2000/svg" xmlns:xlink="http://www.w3.org/1999/xlink">
    <!-- Generator: Sketch 43.1 (39012) - http://www.bohemiancoding.com/sketch -->
    <title>about-item-icon</title>
    <desc>Created with Sketch.</desc>
    <defs></defs>
    <g id="新" stroke="none" stroke-width="1" fill="none" fill-rule="evenodd">
        <g id="活动" transform="translate(-14.000000, -4723.000000)" fill-rule="nonzero" fill="#22A7F0">
            <g id="Group-3" transform="translate(-158.000000, 3145.000000)">
                <g id="Group-8" transform="translate(162.000000, 1494.000000)">
                    <g id="美女写真" transform="translate(10.000000, 84.000000)">
                        <path d="M18.2827201,18.066997 C18.1381926,18.0830351 17.9856359,18.1111019 17.8250499,18.1511974 C17.6644638,18.1912928 17.5199364,18.2353977 17.3914676,18.2835122 C17.2308815,18.3476649 17.0783248,18.4198367 16.9337974,18.5000275 C16.9016802,18.3236077 16.9097095,18.1471878 16.9578853,17.970768 C16.9900025,17.8103863 17.0542369,17.6419855 17.1505885,17.4655656 C17.2469401,17.2891458 17.4075262,17.1127259 17.6323466,16.9363061 C18.0338117,16.6636572 18.5115552,16.4952564 19.065577,16.4311038 C19.6195988,16.3669511 20.1374888,16.4311038 20.6192469,16.6235618 C21.101005,16.8160198 21.4783821,17.1488118 21.7513784,17.6219378 C22.0243747,18.0950638 22.0725505,18.7406001 21.8959058,19.5585467 C21.7513784,20.2161116 21.4542942,20.8135334 21.0046533,21.350812 C20.5550124,21.8880907 19.9568295,22.3010735 19.2101044,22.5897605 C18.4633793,22.8784476 17.5841708,23.014772 16.5724788,22.9987338 C15.5607868,22.9826957 14.4286552,22.7581613 13.1760842,22.3251307 C12.3089196,22.0204055 11.6264289,21.639499 11.1286122,21.1824112 C10.6307955,20.7253234 10.257433,20.256207 10.0085246,19.7750619 C9.75961626,19.2939169 9.61107418,18.8408386 9.56289837,18.4158271 C9.51472256,17.9908157 9.50669326,17.6580237 9.53881046,17.4174511 C9.57092767,17.1768786 9.67129394,16.8801725 9.83990928,16.5273328 C10.0085246,16.1744931 10.1811546,15.8376915 10.3577992,15.5169282 C10.5665611,15.1320121 10.7994108,14.739077 11.0563485,14.3381228 C11.1848173,14.1296266 11.2972275,13.9291495 11.3935792,13.7366914 C11.4738722,13.5602716 11.5381066,13.3838517 11.5862824,13.2074319 C11.6344582,13.031012 11.6344582,12.8626112 11.5862824,12.7022296 C11.4256964,12.2852372 11.2249638,11.9644738 10.9840848,11.7399394 C10.7432057,11.5154051 10.510356,11.3470043 10.2855355,11.2347371 C10.0125393,11.12247 9.73151371,11.0583173 9.44245884,11.0422791 C9.04099376,11.0262409 8.67164588,10.9781264 8.3344152,10.8979356 C8.04536034,10.8177447 7.76032013,10.7134967 7.47929457,10.5851913 C7.19826901,10.456886 6.99352181,10.2564088 6.86505299,9.98375998 C6.72052555,9.71111111 6.66030579,9.43044316 6.6843937,9.14175612 C6.7084816,8.85306909 6.76468671,8.5683916 6.85300903,8.28772364 C6.94133135,8.00705569 7.03366832,7.73841637 7.13001994,7.48180567 C7.22637156,7.22519497 7.27454737,7.00066061 7.27454737,6.80820259 C7.27454737,6.29498119 7.00155112,5.9341224 6.4555586,5.7256262 C5.74898004,5.54920635 5.21904613,5.47703459 4.86575685,5.50911093 C4.51246758,5.54118726 4.26355922,5.60934948 4.11903179,5.71359758 C3.97450436,5.81784567 3.90224064,5.91407469 3.90224064,6.00228461 L3.90224064,6.03837049 C3.90224064,6.26290485 3.9303432,6.55159189 3.98654831,6.9044316 C4.04275342,7.25727131 4.01465087,7.59407285 3.90224064,7.91483622 C3.82194763,8.10729425 3.71355205,8.28772364 3.57705392,8.45612442 C3.44055579,8.62452519 3.32413092,8.78089733 3.2277793,8.92524085 C3.09931047,9.13373704 2.9909149,9.31416644 2.90259258,9.46652904 C2.81427026,9.61889164 2.7781384,9.7191302 2.794197,9.7672447 C2.82631421,9.83139738 2.90259258,9.87550234 3.0230321,9.89955959 C3.14347163,9.92361685 3.2358086,9.95168364 3.30004301,9.98375998 C3.38033603,10.0318745 3.43252649,10.1080558 3.4566144,10.2123039 C3.4807023,10.316552 3.54092207,10.4087714 3.63727369,10.4889623 C3.79785972,10.649344 3.89421134,10.7856684 3.92632855,10.8979356 C3.94238715,10.9620883 3.94238715,11.0182219 3.92632855,11.0663364 C3.92632855,11.1946417 3.93435785,11.3470043 3.95041645,11.5234242 C3.96647506,11.6677677 3.98654831,11.8321589 4.01063622,12.0165979 C4.03472412,12.2010368 4.07085598,12.3814662 4.11903179,12.557886 C4.21538341,12.9748784 4.32779364,13.267575 4.45626246,13.4359758 C4.58473129,13.6043765 4.74130268,13.7086246 4.92597662,13.7487201 C5.11065056,13.7888155 5.33145635,13.792825 5.58839401,13.7607487 C5.84533166,13.7286724 6.15847443,13.7126342 6.52782231,13.7126342 C6.80081857,13.7286724 7.08184413,13.7366914 7.370899,13.7366914 C7.65995386,13.7366914 7.91689151,13.8008441 8.14171196,13.9291495 C8.36653241,14.0574548 8.54317705,14.2338747 8.67164588,14.458409 C8.8001147,14.6829434 8.90449563,14.9074778 8.98478864,15.1320121 C9.04902306,15.404661 9.09719887,15.6853289 9.12931608,15.974016 C9.17749189,16.3428938 9.20157979,16.7117717 9.20157979,17.0806496 C9.20157979,17.401413 9.18552119,17.7502431 9.15340398,18.1271401 C9.12128677,18.5040371 9.04099376,18.8769245 8.91252493,19.2458024 C8.63952867,19.9995963 8.23806358,20.5609322 7.70812967,20.9298101 C7.17819575,21.298688 6.60811533,21.5392605 5.9978884,21.6515277 C5.35554426,21.779833 4.74531733,21.7958712 4.1672076,21.6996422 C3.58909788,21.6034132 3.06719326,21.4430315 2.60149376,21.2184971 C2.13579426,20.9939627 1.75440243,20.7213139 1.45731827,20.4005505 C1.1602341,20.0797871 0.979574812,19.7590238 0.915340398,19.4382604 C0.867164588,19.1816497 0.863149937,18.9290485 0.903296445,18.6804569 C0.943442954,18.4318653 1.00366272,18.1912928 1.08395573,17.9587393 C1.16424875,17.7261859 1.26060037,17.5056611 1.3730106,17.2971649 C1.48542082,17.0886687 1.58177244,16.8881916 1.66206546,16.6957336 C1.80659289,16.3910083 1.89491521,16.122369 1.92703242,15.8898156 C1.95914962,15.6572621 1.95914962,15.4607946 1.92703242,15.3004129 C1.89491521,15.123993 1.8306808,14.9636113 1.73432918,14.8192678 C1.58980174,14.6588861 1.43724501,14.4904854 1.27665898,14.3140655 C1.14819015,14.1536838 1.01169202,13.9812735 0.867164588,13.7968346 C0.722637156,13.6123956 0.60219763,13.407909 0.505846009,13.1833746 C0.18467394,12.5258097 0.0160586035,11.9163593 0,11.3550234 C0,11.1144509 0.00401465087,10.8217543 0.0120439526,10.4769337 C0.0200732543,10.132113 0.0802930174,9.80734012 0.192703242,9.50261492 C0.289054863,9.24600422 0.525919264,8.90519314 0.903296445,8.48018167 C1.28067363,8.0551702 1.70221197,7.50586292 2.16791147,6.83225984 C2.26426309,6.63980182 2.34857076,6.43932471 2.42083447,6.23082852 C2.49309819,6.02233232 2.5493033,5.8298743 2.58944981,5.65345445 C2.62959632,5.47703459 2.65769888,5.32467199 2.67375748,5.19636664 C2.68981608,5.06806129 2.69784538,4.97985136 2.69784538,4.93173686 C2.69784538,4.77135517 2.68981608,4.59493532 2.67375748,4.40247729 C2.65769888,4.21001927 2.64164027,4.00954216 2.62558167,3.80104597 C2.62558167,3.70481696 2.61755237,3.54443527 2.60149376,3.31990091 C2.58543516,3.09536655 2.60550841,2.84677493 2.66171353,2.57412607 C2.71791864,2.3014772 2.81828491,2.02481879 2.96281234,1.74415084 C3.10733977,1.46348289 3.33216022,1.21088173 3.63727369,0.986347371 C3.87815274,0.809927516 4.16319295,0.685631709 4.49239432,0.61345995 C4.82159569,0.541288192 5.13072381,0.497183228 5.41977867,0.481145059 C5.75700935,0.465106891 6.11029862,0.473125975 6.4796465,0.505202312 C6.78475997,0.392935132 7.10593204,0.304725204 7.44316271,0.24057253 C7.73221757,0.176419855 8.06944825,0.120286265 8.45485473,0.0721717589 C8.84026121,0.024057253 9.2417263,1.78059441e-16 9.65924999,0 C11.0563485,0.0320763373 12.2286265,0.244582072 13.1760842,0.637517203 C14.1235418,1.03045234 14.902384,1.51159739 15.512611,2.08095238 C16.1228379,2.65030737 16.5885374,3.26777686 16.9097095,3.93336086 C17.2308815,4.59894486 17.4637313,5.21641435 17.6082587,5.78576934 C17.7527861,6.35512432 17.8370938,6.83626938 17.8611817,7.22920451 C17.8852696,7.62213965 17.8973136,7.8266263 17.8973136,7.84266446 C17.9133722,8.11531333 18.0097238,8.36390495 18.1863684,8.58843931 C18.3630131,8.81297367 18.5677603,9.04151757 18.80061,9.27407102 C19.0334598,9.50662446 19.2743388,9.74318745 19.5232472,9.98375998 C19.7721555,10.2243325 19.984932,10.4889623 20.1615767,10.7776493 C20.4988073,11.3870997 20.6834813,11.9323975 20.7155985,12.4135425 C20.7477157,12.8946876 20.6834813,13.3196991 20.5228952,13.6885769 C20.3623092,14.0574548 20.1374888,14.3742086 19.8484339,14.6388384 C19.559379,14.9034682 19.2663095,15.123993 18.9692254,15.3004129 C18.6721412,15.4768327 18.3991449,15.6131572 18.1502366,15.7093862 C17.9013282,15.8056152 17.7447568,15.8697679 17.6805224,15.9018442 C17.1505885,16.1424167 16.7451088,16.4070465 16.4640832,16.6957336 C16.1830577,16.9844206 15.9943691,17.2731076 15.8980174,17.5617947 C15.8016658,17.8504817 15.7815926,18.1311496 15.8377977,18.4037985 C15.8940028,18.6764474 16.0104277,18.9090008 16.1870723,19.1014588 C16.2994825,19.2458024 16.44401,19.3660886 16.6206546,19.4623176 C16.7972992,19.5585467 16.9779585,19.6307184 17.1626325,19.6788329 C17.3473064,19.7269474 17.523951,19.7550142 17.6925664,19.7630333 C17.8611817,19.7710524 18.0016945,19.7590238 18.1141047,19.7269474 C18.3710424,19.6788329 18.5838189,19.5625562 18.7524342,19.3781173 C18.9210495,19.1936783 19.0214158,18.9972108 19.053533,18.7887146 C19.0856502,18.5802184 19.0414891,18.4037985 18.9210495,18.259455 C18.80061,18.1151115 18.5878335,18.0509588 18.2827201,18.066997 L18.2827201,18.066997 Z" id="about-item-icon"></path>
                    </g>
                </g>
            </g>
        </g>
    </g>
</svg>