<?xml version="1.0" encoding="UTF-8"?>
<svg width="38px" height="34px" viewBox="0 0 38 34" version="1.1" xmlns="http://www.w3.org/2000/svg" xmlns:xlink="http://www.w3.org/1999/xlink">
    <!-- Generator: Sketch 44.1 (41455) - http://www.bohemiancoding.com/sketch -->
    <title>detailed-gift-icon-4</title>
    <desc>Created with Sketch.</desc>
    <defs>
        <filter x="-11.2%" y="-139.7%" width="122.3%" height="379.5%" filterUnits="objectBoundingBox" id="filter-1">
            <feGaussianBlur stdDeviation="0.479910714" in="SourceGraphic"></feGaussianBlur>
        </filter>
    </defs>
    <g id="科教英文小学霸网络评比" stroke="none" stroke-width="1" fill="none" fill-rule="evenodd">
        <g id="详情" transform="translate(-260.000000, -484.000000)">
            <g id="Group-8" transform="translate(5.500000, 452.000000)">
                <g id="Group-9" transform="translate(13.000000, 32.000000)">
                    <g id="detailed-gift-icon-4" transform="translate(241.000000, 0.000000)">
                        <g id="Group-7" transform="translate(0.927384, 20.959283)">
                            <rect id="Rectangle-11" fill="#FFC700" x="0" y="6.18181818" width="37" height="6.18181818"></rect>
                            <rect id="Rectangle-12" fill="#FFC700" x="5" y="1.03030303" width="27" height="4.12121212"></rect>
                            <polygon id="Rectangle-17" fill="#FFB200" points="5 5.15151515 32 5.15151515 37.0287897 6.18409997 0 6.18409997"></polygon>
                            <polygon id="Rectangle-18" fill="#FFB200" points="8 0 29 0 31.9969832 1.03030303 5 1.03030303"></polygon>
                        </g>
                        <path d="M16.0105927,20.9981183 C16.1918759,20.9766704 16.4915021,20.9592834 16.682585,20.9592834 L23.995085,20.9592834 C24.1849329,20.9592834 24.4854408,20.9836304 24.6754562,21.0151864 L26.3773614,21.2978235 L24.6754562,21.5804606 C24.4895454,21.611335 24.186168,21.6363636 23.995085,21.6363636 L16.682585,21.6363636 C16.4927371,21.6363636 16.1849922,21.6181622 16.0105927,21.5975288 L13.4774059,21.2978235 L16.0105927,20.9981183 Z" id="Rectangle-19" fill="#000000" opacity="0.212239583" filter="url(#filter-1)"></path>
                        <path d="M27.7895743,1.21104206 L25.7262536,1.21104206 C25.7262536,0.739586436 25.3547232,0.3532228 24.9013676,0.3532228 L14.9938897,0.3532228 C14.5405341,0.3532228 14.1690037,0.739586436 14.1690037,1.21104206 L12.1056829,1.21104206 C11.1967603,1.21104206 10.4536994,1.98376934 10.4536994,2.92898038 C10.4536994,7.90801176 13.3020993,11.4289804 17.0594219,12.2017076 C17.1014402,12.2017076 17.141247,12.2017076 17.1832654,12.2454035 C17.3071088,12.2890994 17.4309523,12.2890994 17.5547958,12.2890994 C18.4637184,12.9767347 19.0829358,14.5635854 19.0829358,16.4540074 C19.0829358,16.8403711 19.0409175,17.1830388 19.0011106,17.5280063 L17.1014402,17.5280063 C16.2345359,17.5280063 16.2345359,18.3858256 16.2345359,18.3858256 L16.2345359,19.2436449 L15.4096499,19.2436449 C14.9562943,19.2436449 14.5847639,19.6300085 14.5847639,20.1014641 C14.5847639,20.5729198 14.9562943,20.9592834 15.4096499,20.9592834 L24.4900303,20.9592834 C24.9433859,20.9592834 25.3149163,20.5729198 25.3149163,20.1014641 C25.3149163,19.6300085 24.9433859,19.2436449 24.4900303,19.2436449 L23.6651443,19.2436449 L23.6651443,18.3835258 C23.6651443,18.3835258 23.6651443,17.5257066 22.7562217,17.5257066 L20.8565513,17.5257066 C20.8145329,17.1830388 20.7747261,16.8380713 20.7747261,16.4517076 C20.7747261,14.5635854 21.3939435,12.9744349 22.3028661,12.2867996 C22.4267096,12.2867996 22.5505531,12.2431038 22.6743965,12.2431038 C22.7164149,12.2431038 22.7562217,12.2431038 22.79824,12.1994079 C26.5511396,11.4289804 29.3995395,7.90801176 29.3995395,2.92898038 C29.4393463,1.98376934 28.6962855,1.21104206 27.7895743,1.21104206 Z M12.1012599,2.92898038 L14.1645807,2.92898038 L14.1645807,3.3590399 C14.1645807,6.01988947 14.7417797,8.25297929 15.6507024,9.88352583 C13.5055565,8.68073903 12.1012599,6.19237323 12.1012599,2.92898038 Z M21.3153335,2.79479351 L21.3153335,8.67616155 L19.7587542,8.67616155 L19.7587542,5.16892373 L18.5394338,5.16892373 L18.5394338,4.14373113 C19.5079769,4.14373113 20.035479,3.69408975 20.1219561,2.79479351 L21.3153335,2.79479351 Z M24.2379204,9.88352583 C25.146843,8.25297929 25.7240421,6.01988947 25.7240421,3.3590399 L25.7240421,2.92898038 L27.7873628,2.92898038 C27.7895743,6.19237323 26.3852778,8.68073903 24.2379204,9.88352583 Z" id="Shape" fill="#FFC700" fill-rule="nonzero"></path>
                    </g>
                </g>
            </g>
        </g>
    </g>
</svg>