<?xml version="1.0" encoding="UTF-8"?>
<svg width="38px" height="34px" viewBox="0 0 38 34" version="1.1" xmlns="http://www.w3.org/2000/svg" xmlns:xlink="http://www.w3.org/1999/xlink">
    <!-- Generator: Sketch 44.1 (41455) - http://www.bohemiancoding.com/sketch -->
    <title>detailed-gift-icon-1</title>
    <desc>Created with Sketch.</desc>
    <defs>
        <filter x="-6.5%" y="-144.0%" width="113.0%" height="387.9%" filterUnits="objectBoundingBox" id="filter-1">
            <feGaussianBlur stdDeviation="0.479910714" in="SourceGraphic"></feGaussianBlur>
        </filter>
    </defs>
    <g id="科教英文小学霸网络评比" stroke="none" stroke-width="1" fill="none" fill-rule="evenodd">
        <g id="详情" transform="translate(-19.000000, -484.000000)">
            <g id="Group-8" transform="translate(5.500000, 452.000000)">
                <g id="Group-9" transform="translate(13.000000, 32.000000)">
                    <g id="detailed-gift-icon-1">
                        <g id="Group-7" transform="translate(0.927384, 21.342834)">
                            <rect id="Rectangle-11" fill="#FFC700" x="0" y="6" width="37" height="6"></rect>
                            <rect id="Rectangle-12" fill="#FFC700" x="5" y="1" width="27" height="4"></rect>
                            <polygon id="Rectangle-17" fill="#FFB200" points="5 5 32 5 37.0287897 6.00221468 0 6.00221468"></polygon>
                            <polygon id="Rectangle-18" fill="#FFB200" points="8 0 29 0 31.9969832 1 5 1"></polygon>
                        </g>
                        <path d="M12.8497992,21.3643931 C13.0282942,21.3524863 13.3276535,21.3428339 13.499831,21.3428339 L26.6176634,21.3428339 C26.7981711,21.3428339 27.0952873,21.3569527 27.2683483,21.3731572 L30.4536994,21.6714169 L27.2683483,21.9696767 C27.0894927,21.9864238 26.789841,22 26.6176634,22 L13.499831,22 C13.3193234,22 13.0308864,21.9905205 12.8497992,21.9784407 L8.24721857,21.6714169 L12.8497992,21.3643931 Z" id="Rectangle-19" fill="#000000" opacity="0.212239583" filter="url(#filter-1)"></path>
                        <g id="点赞" transform="translate(9.401068, 0.842834)">
                            <path d="M18.9509251,6.83251713 L14.2611471,6.83038727 C13.8963311,6.75870687 13.7876354,6.4211872 13.7563977,6.25966151 L13.7563977,2.08280957 C13.7563977,0.933034474 12.8243322,0.000968995215 11.6745571,0.000969019139 C10.6170754,0.000969019139 9.74437636,0.789624737 9.61097935,1.81072763 L9.61056318,1.80965048 C8.99459651,5.80132804 6.56784299,7.12330256 4.97508402,7.56058234 C5.00774167,7.67973141 5.0252456,7.80238127 5.02524562,7.92645103 L5.02524562,19.1716069 C5.02524562,19.4103947 4.96201117,19.6440414 4.84511435,19.8568059 L16.1832001,19.8568059 C17.2634247,19.6347142 18.022336,19.218537 18.5291908,18.1046511 L20.8998583,9.76313878 C21.3762098,8.27555024 20.6400414,6.77792447 18.9509251,6.83251713 L18.9509251,6.83251713 Z" id="Shape" fill="#45C5FB" fill-rule="nonzero"></path>
                            <path d="M4.04598074,19.1716314 L4.04598074,7.92647553 C4.04598074,7.56929761 3.59107462,7.26752019 3.05261483,7.26752019 L3.05261483,7.24734782 L1.48059127,7.24734782 C0.66537366,7.24734782 0.00450880383,7.93546005 0.00450880383,8.7842656 L0.00450880383,18.2892868 C0.00450880383,19.1381169 0.66537366,19.8262046 1.48059127,19.8262046 L3.02619981,19.8262046 C3.02815828,19.8277469 3.030484,19.8291423 3.03283416,19.8305622 L3.05263931,19.8305622 C3.59107464,19.8305867 4.04598074,19.5288338 4.04598074,19.1716314 Z" id="Path" fill="#00B4FF"></path>
                        </g>
                    </g>
                </g>
            </g>
        </g>
    </g>
</svg>